<svg width="0" height="0" class="hidden">
  <symbol xmlns="http://www.w3.org/2000/svg" viewBox="0 0 512 512" id="paper-plane-solid">
    <path d="M498.1 5.6c10.1 7 15.4 19.1 13.5 31.2l-64 416c-1.5 9.7-7.4 18.2-16 23s-18.9 5.4-28 1.6L277.3 424.9l-40.1 74.5c-5.2 9.7-16.3 14.6-27 11.9S192 499 192 488V392c0-5.3 1.8-10.5 5.1-14.7L362.4 164.7c2.5-7.1-6.5-14.3-13-8.4L170.4 318.2l-32 28.9 0 0c-9.2 8.3-22.3 10.6-33.8 5.8l-85-35.4C8.4 312.8 .8 302.2 .1 290s5.5-23.7 16.1-29.8l448-256c10.7-6.1 23.9-5.5 34 1.4z"></path>
  </symbol>
  <symbol xmlns="http://www.w3.org/2000/svg" viewBox="0 0 512 512" id="phone-solid">
    <path d="M164.9 24.6c-7.7-18.6-28-28.5-47.4-23.2l-88 24C12.1 30.2 0 46 0 64C0 311.4 200.6 512 448 512c18 0 33.8-12.1 38.6-29.5l24-88c5.3-19.4-4.6-39.7-23.2-47.4l-96-40c-16.3-6.8-35.2-2.1-46.3 11.6L304.7 368C234.3 334.7 177.3 277.7 144 207.3L193.3 167c13.7-11.2 18.4-30 11.6-46.3l-40-96z"></path>
  </symbol>
</svg>